<?xml version="1.0" encoding="UTF-8"?>
<!DOCTYPE svg PUBLIC "-//W3C//DTD SVG 1.1//EN" "http://www.w3.org/Graphics/SVG/1.1/DTD/svg11.dtd">
<svg xmlns="http://www.w3.org/2000/svg" version="1.1" width="25px" height="25px" style="shape-rendering:geometricPrecision; text-rendering:geometricPrecision; image-rendering:optimizeQuality; fill-rule:evenodd; clip-rule:evenodd" xmlns:xlink="http://www.w3.org/1999/xlink">
<g><path style="opacity:1" fill="#f6f7f5" d="M -0.5,-0.5 C 2.16667,-0.5 4.83333,-0.5 7.5,-0.5C 7.5,-0.166667 7.5,0.166667 7.5,0.5C 6.73747,1.26791 5.73747,1.76791 4.5,2C 3.74756,2.67076 3.41423,3.5041 3.5,4.5C 2.10008,5.09982 1.10008,6.09982 0.5,7.5C 0.5,6.83333 0.166667,6.5 -0.5,6.5C -0.5,4.16667 -0.5,1.83333 -0.5,-0.5 Z"/></g>
<g><path style="opacity:1" fill="#f2f4e9" d="M 18.5,-0.5 C 20.5,-0.5 22.5,-0.5 24.5,-0.5C 24.5,5.5 24.5,11.5 24.5,17.5C 23.8333,17.5 23.1667,17.5 22.5,17.5C 22.1583,16.6618 21.4916,16.3284 20.5,16.5C 21.209,15.596 22.209,15.2627 23.5,15.5C 23.5,13.8333 23.5,12.1667 23.5,10.5C 23.7373,9.20895 23.404,8.20895 22.5,7.5C 21.7466,5.12025 20.4132,3.12025 18.5,1.5C 18.5,0.833333 18.5,0.166667 18.5,-0.5 Z"/></g>
<g><path style="opacity:1" fill="#c5e682" d="M 18.5,1.5 C 20.4132,3.12025 21.7466,5.12025 22.5,7.5C 22.631,8.23891 22.4643,8.90558 22,9.5C 20.3149,7.98252 18.8149,6.31585 17.5,4.5C 16.8281,5.94916 16.1614,7.2825 15.5,8.5C 15.5339,5.80147 14.8672,3.30147 13.5,1C 15.1966,0.615527 16.8632,0.782194 18.5,1.5 Z"/></g>
<g><path style="opacity:1" fill="#c7e685" d="M 7.5,0.5 C 8.5,0.5 9.5,0.5 10.5,0.5C 10.5905,3.15216 9.92381,5.48549 8.5,7.5C 7.59603,6.79105 7.26269,5.79105 7.5,4.5C 6.16667,4.5 4.83333,4.5 3.5,4.5C 3.41423,3.5041 3.74756,2.67076 4.5,2C 5.73747,1.76791 6.73747,1.26791 7.5,0.5 Z"/></g>
<g><path style="opacity:1" fill="#c1e07f" d="M 3.5,4.5 C 4.83333,4.5 6.16667,4.5 7.5,4.5C 7.26269,5.79105 7.59603,6.79105 8.5,7.5C 7.65859,9.3792 7.32526,11.3792 7.5,13.5C 7.16667,13.5 6.83333,13.5 6.5,13.5C 6.5,12.5 6.5,11.5 6.5,10.5C 4.87623,10.6399 3.70956,9.97326 3,8.5C 2.32924,9.25244 1.4959,9.58577 0.5,9.5C 0.5,8.83333 0.5,8.16667 0.5,7.5C 1.10008,6.09982 2.10008,5.09982 3.5,4.5 Z"/></g>
<g><path style="opacity:1" fill="#c8e68c" d="M 22.5,7.5 C 23.404,8.20895 23.7373,9.20895 23.5,10.5C 21.1667,10.5 18.8333,10.5 16.5,10.5C 15.8333,10.5 15.5,10.1667 15.5,9.5C 15.5,9.16667 15.5,8.83333 15.5,8.5C 16.1614,7.2825 16.8281,5.94916 17.5,4.5C 18.8149,6.31585 20.3149,7.98252 22,9.5C 22.4643,8.90558 22.631,8.23891 22.5,7.5 Z"/></g>
<g><path style="opacity:1" fill="#d1c8b6" d="M 7.5,0.5 C 7.5,0.166667 7.5,-0.166667 7.5,-0.5C 11.1667,-0.5 14.8333,-0.5 18.5,-0.5C 18.5,0.166667 18.5,0.833333 18.5,1.5C 16.8632,0.782194 15.1966,0.615527 13.5,1C 14.8672,3.30147 15.5339,5.80147 15.5,8.5C 15.5,8.83333 15.5,9.16667 15.5,9.5C 13.1475,10.3403 11.1475,11.6736 9.5,13.5C 8.83333,13.5 8.16667,13.5 7.5,13.5C 7.32526,11.3792 7.65859,9.3792 8.5,7.5C 9.92381,5.48549 10.5905,3.15216 10.5,0.5C 9.5,0.5 8.5,0.5 7.5,0.5 Z"/></g>
<g><path style="opacity:1" fill="#a6d14b" d="M 6.5,13.5 C 6.5,14.5 6.5,15.5 6.5,16.5C 5.16667,16.5 3.83333,16.5 2.5,16.5C 0.656493,14.7211 -0.0101734,12.3878 0.5,9.5C 1.4959,9.58577 2.32924,9.25244 3,8.5C 3.70956,9.97326 4.87623,10.6399 6.5,10.5C 6.5,11.5 6.5,12.5 6.5,13.5 Z"/></g>
<g><path style="opacity:1" fill="#a5d04c" d="M 16.5,10.5 C 18.8333,10.5 21.1667,10.5 23.5,10.5C 23.5,12.1667 23.5,13.8333 23.5,15.5C 22.209,15.2627 21.209,15.596 20.5,16.5C 18.9699,15.7888 17.6366,14.7888 16.5,13.5C 16.5,12.5 16.5,11.5 16.5,10.5 Z"/></g>
<g><path style="opacity:1" fill="#bcaaa4" d="M 15.5,9.5 C 15.5,10.1667 15.8333,10.5 16.5,10.5C 16.5,11.5 16.5,12.5 16.5,13.5C 15.5,13.5 14.5,13.5 13.5,13.5C 13.5,15.5 13.5,17.5 13.5,19.5C 12.5,19.5 11.5,19.5 10.5,19.5C 10.1667,17.5 9.83333,15.5 9.5,13.5C 11.1475,11.6736 13.1475,10.3403 15.5,9.5 Z"/></g>
<g><path style="opacity:1" fill="#e6d0c3" d="M 6.5,13.5 C 6.83333,13.5 7.16667,13.5 7.5,13.5C 8.16667,13.5 8.83333,13.5 9.5,13.5C 9.83333,15.5 10.1667,17.5 10.5,19.5C 8.27194,19.7769 6.60527,20.7769 5.5,22.5C 4.35362,20.525 2.68695,19.025 0.5,18C 1.4158,17.7216 2.08247,17.2216 2.5,16.5C 3.83333,16.5 5.16667,16.5 6.5,16.5C 6.5,15.5 6.5,14.5 6.5,13.5 Z"/></g>
<g><path style="opacity:1" fill="#f7f9f1" d="M 22.5,17.5 C 23.1667,17.5 23.8333,17.5 24.5,17.5C 24.5,19.8333 24.5,22.1667 24.5,24.5C 18.5,24.5 12.5,24.5 6.5,24.5C 6.5,23.8333 6.5,23.1667 6.5,22.5C 11.0537,23.9917 15.3871,23.6583 19.5,21.5C 21.4456,20.9653 22.4456,19.632 22.5,17.5 Z"/></g>
<g><path style="opacity:1" fill="#f7f6f7" d="M -0.5,6.5 C 0.166667,6.5 0.5,6.83333 0.5,7.5C 0.5,8.16667 0.5,8.83333 0.5,9.5C -0.0101734,12.3878 0.656493,14.7211 2.5,16.5C 2.08247,17.2216 1.4158,17.7216 0.5,18C 2.68695,19.025 4.35362,20.525 5.5,22.5C 5.83333,22.5 6.16667,22.5 6.5,22.5C 6.5,23.1667 6.5,23.8333 6.5,24.5C 4.16667,24.5 1.83333,24.5 -0.5,24.5C -0.5,18.5 -0.5,12.5 -0.5,6.5 Z"/></g>
<g><path style="opacity:1" fill="#e8d0c3" d="M 16.5,13.5 C 17.6366,14.7888 18.9699,15.7888 20.5,16.5C 21.4916,16.3284 22.1583,16.6618 22.5,17.5C 22.4456,19.632 21.4456,20.9653 19.5,21.5C 17.6976,20.5418 15.6976,19.8751 13.5,19.5C 13.5,17.5 13.5,15.5 13.5,13.5C 14.5,13.5 15.5,13.5 16.5,13.5 Z"/></g>
<g><path style="opacity:1" fill="#a5bb62" d="M 13.5,19.5 C 15.6976,19.8751 17.6976,20.5418 19.5,21.5C 16.9179,21.9746 14.9179,21.3079 13.5,19.5 Z"/></g>
<g><path style="opacity:1" fill="#9bcb3a" d="M 10.5,19.5 C 11.5,19.5 12.5,19.5 13.5,19.5C 14.9179,21.3079 16.9179,21.9746 19.5,21.5C 15.3871,23.6583 11.0537,23.9917 6.5,22.5C 6.16667,22.5 5.83333,22.5 5.5,22.5C 6.60527,20.7769 8.27194,19.7769 10.5,19.5 Z"/></g>
</svg>
