<?xml version="1.0" encoding="utf-8"?>
<!-- Generator: Adobe Illustrator 16.0.0, SVG Export Plug-In . SVG Version: 6.00 Build 0)  -->
<!DOCTYPE svg PUBLIC "-//W3C//DTD SVG 1.1//EN" "http://www.w3.org/Graphics/SVG/1.1/DTD/svg11.dtd">
<svg version="1.1" id="Layer_1" xmlns="http://www.w3.org/2000/svg" xmlns:xlink="http://www.w3.org/1999/xlink" x="0px" y="0px"
	 width="24px" height="24px" viewBox="0 0 24 24" enable-background="new 0 0 24 24" xml:space="preserve">
<g>
	<path d="M16.446,11.417c0.002-0.002,0.003-0.005,0.005-0.008c0.229-0.349,0.441-0.717,0.626-1.121l0.162,2.629
		c0.001,0.023,0.02,0.037,0.026,0.057c0.01,0.029,0.018,0.053,0.036,0.076c0.021,0.027,0.046,0.042,0.076,0.059
		c0.019,0.01,0.026,0.029,0.047,0.035c0.021,0.006,0.043,0.008,0.064,0.008c0.005,0,0.01,0,0.016,0
		c0.013-0.001,0.02-0.013,0.031-0.016c0.046-0.01,0.086-0.026,0.12-0.059c0.017-0.016,0.023-0.033,0.035-0.053
		c0.013-0.02,0.033-0.034,0.039-0.059c0.078-0.291,1.875-7.187-0.256-11.015c-0.001-0.003-0.005-0.003-0.006-0.005
		s0-0.004-0.001-0.006C16.158-0.155,12.269,0.046,12,0.062C11.73,0.046,7.841-0.155,6.532,1.94c-0.001,0.002,0,0.004-0.001,0.006
		S6.526,1.948,6.525,1.951C4.395,5.779,6.191,12.675,6.27,12.966c0.006,0.024,0.026,0.039,0.039,0.059
		c0.012,0.02,0.019,0.037,0.035,0.053c0.034,0.032,0.074,0.049,0.12,0.059c0.012,0.003,0.019,0.015,0.031,0.016
		c0.006,0,0.011,0,0.016,0c0.021,0,0.043-0.002,0.064-0.008c0.021-0.006,0.028-0.025,0.047-0.035
		c0.03-0.017,0.055-0.031,0.076-0.059c0.019-0.023,0.026-0.047,0.036-0.076c0.007-0.02,0.025-0.033,0.026-0.057l0.163-2.633
		c0.183,0.402,0.395,0.77,0.621,1.117c0.005,0.006,0.007,0.012,0.013,0.018c0.033,0.051,0.07,0.097,0.104,0.146v0.608
		c-1.159,1.354-1.646,4.851-1.667,5.001c-0.003,0.02,0.013,0.035,0.015,0.054c0.002,0.032,0.008,0.058,0.022,0.087
		c0.016,0.03,0.033,0.051,0.059,0.072c0.014,0.012,0.017,0.032,0.034,0.041l1.537,0.828v0.125c0,0.139,0.112,0.25,0.25,0.25h0.475
		l0.047,3.824c0.001,0.045,0.027,0.078,0.049,0.113c0.011,0.02,0.01,0.045,0.025,0.061c0.022,0.021,0.058,0.023,0.087,0.036
		l0.218,1.085c0.007,0.033,0.031,0.055,0.05,0.082c0.012,0.018,0.015,0.036,0.03,0.05c0.045,0.041,0.102,0.068,0.165,0.068h1
		c0.062,0,0.115-0.026,0.16-0.066c0.016-0.013,0.021-0.03,0.033-0.046c0.016-0.021,0.038-0.039,0.046-0.066l0.323-1.081
		c0.045-0.007,0.085-0.024,0.12-0.054c0.014-0.012,0.021-0.024,0.032-0.039c0.014-0.018,0.033-0.029,0.042-0.051l0.883-2.145h0.605
		l0.883,2.145c0.009,0.021,0.028,0.033,0.042,0.051c0.011,0.015,0.019,0.027,0.032,0.039c0.035,0.029,0.075,0.047,0.12,0.054
		l0.323,1.081c0.008,0.027,0.03,0.045,0.046,0.066c0.012,0.016,0.018,0.033,0.033,0.046c0.045,0.04,0.099,0.066,0.16,0.066h1
		c0.063,0,0.12-0.027,0.165-0.068c0.016-0.014,0.019-0.032,0.03-0.05c0.019-0.027,0.043-0.049,0.05-0.082l0.218-1.085
		c0.029-0.013,0.064-0.015,0.087-0.036c0.016-0.016,0.015-0.041,0.025-0.061c0.021-0.035,0.048-0.068,0.049-0.113l0.047-3.824h0.475
		c0.138,0,0.25-0.111,0.25-0.25v-0.125l1.537-0.828c0.018-0.009,0.021-0.029,0.034-0.041c0.025-0.021,0.043-0.042,0.059-0.072
		c0.015-0.029,0.021-0.055,0.022-0.087c0.002-0.019,0.018-0.034,0.015-0.054c-0.021-0.15-0.508-3.646-1.667-5.001v-0.604
		C16.373,11.518,16.411,11.47,16.446,11.417z M13.184,18.132l-0.458-3.162l0.297-0.944c0.664-0.159,1.293-0.478,1.873-0.92
		c0.031-0.017,0.058-0.032,0.079-0.061c0.304-0.24,0.594-0.51,0.863-0.819v5.906H13.184z M8.162,18.132v-5.908
		c0.802,0.923,1.769,1.551,2.815,1.801l0.297,0.945l-0.458,3.162H8.162z M7.967,9.714l1.01-2.756l1.117,1.61
		C9.992,8.53,9.887,8.497,9.772,8.497c-0.558,0-1.015,0.499-1.015,1.116c0,0.614,0.457,1.116,1.015,1.116
		c0.561,0,1.011-0.502,1.011-1.116c0-0.093-0.028-0.175-0.047-0.26c0.017,0.004,0.028,0.02,0.047,0.02
		c0.05,0,0.099-0.015,0.143-0.044c0.007-0.006,0.007-0.016,0.013-0.021c0.025-0.021,0.034-0.049,0.05-0.077
		c0.016-0.03,0.033-0.054,0.036-0.087c0.001-0.008,0.009-0.013,0.009-0.021V8.194c0.827,1.48,2.358,2.669,2.441,2.733
		c0.046,0.034,0.099,0.052,0.152,0.052c0.076,0,0.139-0.038,0.184-0.092c0.004-0.004,0.011-0.002,0.015-0.007
		c0.018-0.022,0.012-0.051,0.021-0.077c0.01-0.025,0.031-0.045,0.031-0.074V9.648c0.492,0.892,0.639,2.377,0.653,3.111
		c-0.77,0.569-1.63,0.898-2.529,0.898c-1.552,0-2.999-0.946-4.024-2.512L7.967,9.714z M10.425,9.146c0,0.281-0.207,0.51-0.46,0.51
		c-0.255,0-0.462-0.229-0.462-0.51c0-0.28,0.207-0.506,0.462-0.506c0.088,0,0.165,0.034,0.235,0.081l0.199,0.288
		C10.411,9.053,10.425,9.097,10.425,9.146z M6.517,17.072c0.096-0.612,0.465-2.726,1.146-4.002v4.618L6.517,17.072z M9.871,23.451
		H9.263l-0.15-0.749h0.983L9.871,23.451z M14.737,23.451h-0.608l-0.225-0.749h0.983L14.737,23.451z M17.483,17.072l-1.146,0.616
		V13.07C17.019,14.347,17.388,16.46,17.483,17.072z"/>
</g>
</svg>
